<svg width="264" height="218" viewBox="0 0 264 218" fill="none" xmlns="http://www.w3.org/2000/svg">
<g clip-path="url(#clip0_1382_11369)">
<path d="M128.5 115.324L135.9 89.9287C125.6 80.169 120 67.9196 120 55.2718C120 24.7976 152.3 0 192 0C231.7 0 264 24.7976 264 55.2718C264 85.746 231.7 110.544 192 110.544C180.5 110.544 169 108.452 158.9 104.369L128.5 115.324ZM192 5.97533C155.6 5.97533 126 28.0841 126 55.2718C126 66.7245 131.4 77.9781 141.3 86.7419L142.7 88.0365L137.5 105.664L159 97.8958L160.1 98.2942C169.8 102.377 180.9 104.469 192 104.469C228.4 104.469 258 82.36 258 55.1722C258 27.9845 228.4 5.97533 192 5.97533Z" fill="black"/>
<path d="M104 147.59C104 147.491 104 147.391 104 147.291C104 147.192 104 146.993 104 146.893C104 143.905 103.4 141.017 102.3 138.428L94.6 98.2938C93.8 94.3102 90.6 91.223 86.6 90.6254C84.4 90.3267 81.7 90.3267 78.7 90.6254C77.1 90.8246 75.8 92.2189 76 93.9119C76.2 95.5053 77.6 96.7004 79.3 96.6008C81.8 96.302 84 96.302 85.7 96.6008C87.2 96.8 88.4 97.995 88.7 99.4889L94.3 128.569C90.9 126.278 86.9 124.784 82.5 124.585C81 122.793 79.4 121.199 77.7 119.705C70.6 113.63 61.6 110.643 51 110.643C40.4 110.643 31.4 113.73 24.3 119.705C22.5 121.299 20.8 122.992 19.3 124.784C15.8 125.282 12.5 126.577 9.7 128.569L15.3 99.4889C15.6 97.995 16.8 96.8995 18.3 96.6008C20 96.4016 22.2 96.4016 24.7 96.6008C26.4 96.8 27.8 95.6049 28 93.9119C28.2 92.3185 27 90.8246 25.3 90.6254C22.3 90.3267 19.7 90.3267 17.4 90.6254C13.4 91.223 10.2 94.2106 9.4 98.2938L1.7 138.428C0.6 141.017 0 143.905 0 146.893C0 146.993 0 147.192 0 147.291C0 147.391 0 147.491 0 147.59C0.2 155.059 4.1 161.632 10 165.516V218L27.8 201.368L40.1 214.614L51 201.767L61.9 214.614L74.2 201.368L92 218V166.711C98.9 163.027 103.7 155.856 104 147.59ZM51 116.519C60.1 116.519 67.8 119.108 73.8 124.187C74.3 124.585 74.7 124.984 75.1 125.382C70.3 126.776 66.2 129.764 63.3 133.648C52.4 128.967 44.4 131.357 40.4 133.349C37.2 129.166 32.6 126.079 27.2 124.984C27.5 124.685 27.8 124.486 28.1 124.187C34.2 119.108 41.9 116.519 51 116.519ZM6 147.491L7.4 140.221C10 134.445 15.8 130.461 22.5 130.461C31.6 130.461 39 137.831 39 146.893C39 147.092 39 147.292 39 147.491C38.1 147.092 37.1 146.893 36 146.893C31.9 146.893 28.5 150.279 28.5 154.362C28.5 156.952 29.8 159.143 31.7 160.537C29.1 162.329 25.9 163.325 22.5 163.325C13.6 163.325 6.4 156.255 6 147.491ZM86 204.256L73.8 193.003L62.1 205.651L51 192.604L39.9 205.651L28.2 193.003L16 204.256V168.305C18.1 168.902 20.2 169.301 22.5 169.301C34.9 169.301 45 159.242 45 146.893C45 144.005 44.4 141.117 43.4 138.627C44.2 138.229 45.2 137.831 46.5 137.532H55.9C57.3 137.831 58.9 138.329 60.5 139.026C59.5 141.515 59 144.204 59 146.993C59 159.342 69.1 169.4 81.5 169.4C83 169.4 84.5 169.201 86 168.902V204.256ZM81.5 163.325C78.1 163.325 74.9 162.329 72.3 160.537C74.3 159.143 75.5 156.952 75.5 154.362C75.5 150.279 72.1 146.893 68 146.893C66.9 146.893 65.9 147.092 65 147.491C65 147.292 65 147.092 65 146.893C65 137.831 72.4 130.461 81.5 130.461C88.2 130.461 94 134.445 96.6 140.221L98 147.491C97.6 156.255 90.4 163.325 81.5 163.325Z" fill="black"/>
<path d="M156.517 65.1843C154.234 65.1843 152.229 64.7043 150.501 63.7443C148.794 62.7843 147.461 61.4403 146.501 59.7123C145.562 57.9843 145.093 55.9683 145.093 53.6643C145.093 51.3389 145.562 49.3229 146.501 47.6163C147.461 45.8883 148.794 44.5443 150.501 43.5843C152.229 42.6243 154.234 42.1443 156.517 42.1443C158.821 42.1443 160.826 42.6243 162.533 43.5843C164.239 44.5443 165.562 45.8883 166.501 47.6163C167.461 49.3229 167.941 51.3389 167.941 53.6643C167.941 55.9683 167.461 57.9843 166.501 59.7123C165.562 61.4403 164.239 62.7843 162.533 63.7443C160.826 64.7043 158.821 65.1843 156.517 65.1843ZM156.517 60.3843C158.245 60.3843 159.567 59.8083 160.485 58.6563C161.402 57.5043 161.861 55.8403 161.861 53.6643C161.861 51.4883 161.402 49.8243 160.485 48.6723C159.567 47.5203 158.245 46.9443 156.517 46.9443C154.789 46.9443 153.466 47.5203 152.549 48.6723C151.631 49.8243 151.173 51.4883 151.173 53.6643C151.173 55.8403 151.631 57.5043 152.549 58.6563C153.466 59.8083 154.789 60.3843 156.517 60.3843ZM179.651 65.1843C177.773 65.1843 176.152 64.8216 174.787 64.0963C173.421 63.3496 172.365 62.2936 171.619 60.9283C170.872 59.5629 170.499 57.9416 170.499 56.0643C170.499 54.1869 170.872 52.5656 171.619 51.2003C172.365 49.8349 173.421 48.7896 174.787 48.0643C176.152 47.3176 177.773 46.9443 179.651 46.9443C181.549 46.9443 183.181 47.3176 184.547 48.0643C185.912 48.7896 186.957 49.8349 187.683 51.2003C188.429 52.5656 188.803 54.1869 188.803 56.0643C188.803 57.9416 188.429 59.5629 187.683 60.9283C186.957 62.2936 185.912 63.3496 184.547 64.0963C183.181 64.8216 181.549 65.1843 179.651 65.1843ZM179.651 60.7043C181.955 60.7043 183.107 59.1576 183.107 56.0643C183.107 52.9709 181.955 51.4243 179.651 51.4243C177.347 51.4243 176.195 52.9709 176.195 56.0643C176.195 59.1576 177.347 60.7043 179.651 60.7043ZM203.054 65.1843C202.008 65.1843 201.048 64.9389 200.174 64.4483C199.299 63.9576 198.542 63.2856 197.902 62.4323V71.2643H192.334V47.2643H197.198L197.614 50.1443C198.232 49.1416 199.011 48.3629 199.95 47.8083C200.888 47.2323 201.923 46.9443 203.054 46.9443C204.611 46.9443 205.966 47.3283 207.118 48.0963C208.291 48.8429 209.198 49.8989 209.838 51.2643C210.478 52.6296 210.798 54.2296 210.798 56.0643C210.798 57.8989 210.478 59.4989 209.838 60.8643C209.198 62.2296 208.291 63.2963 207.118 64.0643C205.966 64.8109 204.611 65.1843 203.054 65.1843ZM201.518 60.6083C202.648 60.6083 203.523 60.2136 204.142 59.4243C204.782 58.6136 205.102 57.4936 205.102 56.0643C205.102 54.6349 204.782 53.5256 204.142 52.7363C203.523 51.9256 202.648 51.5203 201.518 51.5203C200.387 51.5203 199.502 51.9256 198.862 52.7363C198.222 53.5256 197.902 54.6349 197.902 56.0643C197.902 57.4936 198.222 58.6136 198.862 59.4243C199.502 60.2136 200.387 60.6083 201.518 60.6083ZM220.991 50.8483C220.201 50.8483 219.583 50.9763 219.135 51.2323C218.708 51.4669 218.495 51.7976 218.495 52.2243C218.495 52.6296 218.633 52.9389 218.911 53.1523C219.209 53.3443 219.711 53.4829 220.415 53.5683L222.975 53.8883C225.065 54.1443 226.644 54.6989 227.711 55.5523C228.799 56.3843 229.343 57.6003 229.343 59.2003C229.343 61.0136 228.639 62.4643 227.231 63.5523C225.844 64.6403 223.881 65.1843 221.343 65.1843C218.633 65.1843 216.639 64.7256 215.359 63.8083C214.079 62.8909 213.257 61.4509 212.895 59.4883L217.919 58.8483C218.089 59.7443 218.463 60.3736 219.039 60.7363C219.636 61.0989 220.351 61.2803 221.183 61.2803C222.164 61.2803 222.868 61.1416 223.295 60.8643C223.721 60.5869 223.935 60.2456 223.935 59.8403C223.935 59.3709 223.775 59.0296 223.455 58.8163C223.135 58.6029 222.591 58.4536 221.823 58.3683L219.167 58.0483C217.268 57.8136 215.807 57.2483 214.783 56.3523C213.78 55.4563 213.279 54.2616 213.279 52.7683C213.279 51.6163 213.588 50.6029 214.207 49.7283C214.825 48.8536 215.711 48.1709 216.863 47.6803C218.015 47.1896 219.369 46.9443 220.927 46.9443C225.663 46.9443 228.329 48.7363 228.927 52.3203L223.903 52.9603C223.647 51.5523 222.676 50.8483 220.991 50.8483ZM238.121 57.8243H233.193L232.809 42.4643H238.505L238.121 57.8243ZM232.873 64.8643V59.6163H238.441V64.8643H232.873Z" fill="black"/>
</g>
<defs>
<clipPath id="clip0_1382_11369">
<rect width="264" height="218" fill="white"/>
</clipPath>
</defs>
</svg>
